<?xml version="1.0" encoding="utf-8"?>
<!-- Generator: Adobe Illustrator 16.0.0, SVG Export Plug-In . SVG Version: 6.00 Build 0)  -->
<!DOCTYPE svg PUBLIC "-//W3C//DTD SVG 1.1//EN" "http://www.w3.org/Graphics/SVG/1.1/DTD/svg11.dtd">
<svg version="1.1" id="Layer_1" xmlns="http://www.w3.org/2000/svg" xmlns:xlink="http://www.w3.org/1999/xlink" x="0px" y="0px"
	 width="750px" height="292.264px" viewBox="0 0 750 292.264" enable-background="new 0 0 750 292.264" xml:space="preserve">
<g>
	<linearGradient id="SVGID_1_" gradientUnits="userSpaceOnUse" x1="3.8774" y1="94.8706" x2="149.5972" y2="94.8706">
		<stop  offset="0" style="stop-color:#FE4F31"/>
		<stop  offset="1" style="stop-color:#E1296D"/>
	</linearGradient>
	<path fill="url(#SVGID_1_)" d="M129.658,131.684c1.427-2.043,3.475-5.624,6.133-10.737c6.545-11.659,10.481-17.486,11.813-17.486
		c1.327,0,1.993,0.82,1.993,2.453c0,10.024-5.214,22.702-15.646,38.042c-18.819,27.61-43.868,41.416-75.158,41.416
		c-8.796,0-16.873-2.047-24.237-6.137c-7.361-4.088-13.19-9.304-17.484-15.645c-8.796-12.884-13.194-26.382-13.194-40.494
		c0-35.586,9.254-64.27,27.766-86.05C50.151,15.261,72.083,4.372,97.444,4.372c9.612,0,17.488,2.813,23.622,8.437
		c6.137,5.625,9.204,12.73,9.204,21.32c0,8.59-2.147,16.564-6.441,23.928c-4.294,7.362-9.462,11.045-15.491,11.045
		c-6.038,0-9.05-1.635-9.05-4.91c0-3.68,1.993-7.87,5.979-12.576c3.99-4.702,5.983-9.406,5.983-14.111
		c0-14.52-7.723-21.783-23.16-21.783c-15.445,0-29.405,10.332-41.875,30.984c-12.479,20.661-18.716,41.93-18.716,63.81
		c0,15.138,4.294,28.583,12.886,40.342c8.588,11.763,20.655,17.638,36.2,17.638C94.989,168.495,112.677,156.225,129.658,131.684z"/>
	<linearGradient id="SVGID_2_" gradientUnits="userSpaceOnUse" x1="130.2651" y1="125.5474" x2="223.5283" y2="125.5474">
		<stop  offset="0" style="stop-color:#FE4F31"/>
		<stop  offset="1" style="stop-color:#E1296D"/>
	</linearGradient>
	<path fill="url(#SVGID_2_)" d="M156.958,102.232l16.873-1.841c1.631,0,3.066,0.922,4.294,2.761c1.228,1.841,1.839,3.789,1.839,5.83
		c0,2.047-0.666,9.002-1.993,20.861c-1.331,11.863-1.993,21.221-1.993,28.069c0,6.855,0.612,10.278,1.839,10.278
		c3.474-0.202,8.285-4.548,14.417-13.039c6.138-8.484,12.221-19.375,18.254-32.671c6.029-13.292,9.712-19.941,11.043-19.941
		c1.328,0,1.998,0.82,1.998,2.455c0,5.728-2.971,14.832-8.9,27.304c-16.157,34.358-29.754,51.537-40.797,51.537
		c-7.977,0-14.015-1.633-18.101-4.908c-1.436-1.429-2.146-10.325-2.146-26.69c0-16.359,1.735-30.371,5.213-42.027
		c-11.863,0-20.147-3.782-24.849-11.351c-2.455-3.882-3.683-8.282-3.683-13.192c0-4.908,1.024-9.202,3.071-12.884
		c2.039-3.681,4.955-5.522,8.742-5.522c3.783,0,7.257,1.993,10.432,5.981c3.167,3.988,4.751,8.436,4.751,13.346
		c0,4.908-1.431,9.815-4.294,14.726C153.783,101.927,155.115,102.232,156.958,102.232z"/>
	<linearGradient id="SVGID_3_" gradientUnits="userSpaceOnUse" x1="208.4907" y1="128.6147" x2="314.6357" y2="128.6147">
		<stop  offset="0" style="stop-color:#FE4F31"/>
		<stop  offset="1" style="stop-color:#E1296D"/>
	</linearGradient>
	<path fill="url(#SVGID_3_)" d="M245.918,183.834c-11.455,0-20.555-4.342-27.304-13.039c-6.749-8.69-10.124-18.56-10.124-29.603
		c0-22.29,4.702-39.163,14.114-50.618c9.404-11.453,21.575-17.181,36.503-17.181c6.953,0,12.679,1.894,17.181,5.676
		c4.498,3.786,6.749,8.95,6.749,15.493c0,12.271-5.168,22.548-15.491,30.83c-10.331,8.282-22.96,12.63-37.889,13.039
		c0.816,7.976,3.529,14.877,8.13,20.707c4.602,5.83,9.97,8.744,16.107,8.744s11.659-1.429,16.565-4.296
		c4.91-2.861,9.408-6.951,13.498-12.271c8.592-11.245,15.953-24.029,22.09-38.347c1.636-3.683,2.913-6.337,3.833-7.977
		c0.923-1.635,1.943-2.455,3.071-2.455c1.119,0,1.685,0.82,1.685,2.455c0,10.229-6.242,25.569-18.711,46.016
		C282.426,172.897,265.753,183.834,245.918,183.834z M229.657,131.07c12.067-2.043,20.913-5.93,26.539-11.657
		c5.621-5.724,8.434-13.192,8.434-22.396c0-9.202-2.967-13.804-8.896-13.804c-7.161,0-13.19,4.959-18.1,14.877
		C232.728,108.014,230.065,119.005,229.657,131.07z"/>
	<linearGradient id="SVGID_4_" gradientUnits="userSpaceOnUse" x1="298.3745" y1="128.6147" x2="434.2788" y2="128.6147">
		<stop  offset="0" style="stop-color:#FE4F31"/>
		<stop  offset="1" style="stop-color:#E1296D"/>
	</linearGradient>
	<path fill="url(#SVGID_4_)" d="M384.581,183.834c-7.977,0-14.01-1.633-18.1-4.908c-1.436-1.429-2.147-5.062-2.147-10.891
		c0-5.827,0.2-13.65,0.612-23.467c-5.318,13.296-10.582,23.162-15.799,29.603c-5.213,6.443-11.917,9.664-20.093,9.664
		c-8.18,0-15.337-3.834-21.475-11.503c-6.133-7.671-9.204-19.735-9.204-36.2c0-16.46,4.652-31.032,13.96-43.717
		c9.304-12.678,21.521-19.02,36.658-19.02c6.545,0,13.905,4.296,22.09,12.885c1.636-2.247,4.548-4.956,8.742-8.129
		c4.19-3.168,7.769-4.756,10.739-4.756c2.959,0,4.448,3.889,4.448,11.657c0,2.047-0.566,6.035-1.689,11.964
		c-1.127,5.936-2.404,10.229-3.836,12.884c-1.84,4.708-2.759,21.375-2.759,50.006c0,5.522,0.611,8.283,1.839,8.283
		c3.475-0.202,8.284-4.548,14.418-13.039c6.137-8.484,12.221-19.375,18.254-32.671c6.033-13.292,9.711-19.941,11.047-19.941
		c1.327,0,1.993,0.82,1.993,2.455c0,5.728-2.967,14.832-8.896,27.304C409.221,166.656,395.624,183.834,384.581,183.834z
		 M347.153,85.666c-5.729,0-11.813,4.249-18.254,12.732c-6.441,8.488-9.662,18.458-9.662,29.911c0,11.455,1.685,20.86,5.06,28.223
		s7.822,11.043,13.344,11.043c6.749,0,16.669-16.873,29.76-50.618c0.199-1.635,0.461-4.448,0.766-8.437
		c0.308-3.988,0.562-7.002,0.77-9.05c-1.844-3.269-5.064-6.389-9.666-9.358C354.668,87.153,350.627,85.666,347.153,85.666z"/>
	<linearGradient id="SVGID_5_" gradientUnits="userSpaceOnUse" x1="409.1216" y1="98.2441" x2="493.4849" y2="98.2441">
		<stop  offset="0" style="stop-color:#FE4F31"/>
		<stop  offset="1" style="stop-color:#E1296D"/>
	</linearGradient>
	<path fill="url(#SVGID_5_)" d="M484.588,132.297c-16.161,34.358-29.809,51.537-40.956,51.537c-11.146,0-17.692-1.332-19.631-3.988
		c-1.947-2.655-2.917-11.451-2.917-26.382c0-14.927,1.428-36.506,4.294-64.729c-10.224-2.043-15.645-6.237-16.257-12.579
		c0-3.269,2.147-4.908,6.441-4.908s8.076,0.82,11.352,2.455c1.839-14.726,3.985-29.653,6.44-44.791
		c0.616-3.882,2.555-7.564,5.829-11.043c3.271-3.477,6.441-5.216,9.513-5.216c2.654,0,3.985,4.194,3.985,12.579
		c0,3.886-1.431,21.781-4.294,53.684c5.522-1.02,11.605-3.066,18.255-6.135c6.641-3.067,10.58-4.603,11.809-4.603
		c3.682,0,5.521,1.128,5.521,3.375c0.203,2.047-3.579,4.862-11.352,8.436c-7.772,3.583-16.156,6.29-25.152,8.13
		c-2.455,29.863-3.683,52.459-3.683,67.798c0,8.183,1.228,12.271,3.683,12.271c3.678-0.202,8.588-4.496,14.725-12.884
		c6.134-8.384,12.217-19.276,18.25-32.672c6.033-13.394,9.712-20.095,11.048-20.095c1.327,0,1.993,0.82,1.993,2.455
		C493.485,110.721,490.518,119.825,484.588,132.297z"/>
	<linearGradient id="SVGID_6_" gradientUnits="userSpaceOnUse" x1="477.5278" y1="101.312" x2="547.4722" y2="101.312">
		<stop  offset="0" style="stop-color:#FE4F31"/>
		<stop  offset="1" style="stop-color:#E1296D"/>
	</linearGradient>
	<path fill="url(#SVGID_6_)" d="M497.774,183.834c-7.976,0-14.01-1.633-18.1-4.908c-1.432-1.429-2.146-6.543-2.146-15.339
		c0-8.79,0.661-23.468,1.992-44.022c1.332-20.553,2.506-31.646,3.529-33.285c1.023-1.634,4.189-4.702,9.512-9.202
		c5.313-4.498,9.457-6.749,12.424-6.749c2.963,0,4.448,3.886,4.448,11.657c0,2.047-0.565,6.036-1.688,11.965
		c-1.124,5.934-2.405,10.228-3.833,12.884c-2.663,6.749-3.99,24.441-3.99,53.072c0,5.522,0.616,8.283,1.844,8.283
		c3.474-0.202,8.28-4.548,14.417-13.039c6.138-8.484,12.217-19.375,18.254-32.671c6.029-13.292,9.712-19.941,11.043-19.941
		c1.328,0,1.993,0.82,1.993,2.455c0,5.728-2.966,14.832-8.896,27.304C522.419,166.656,508.822,183.834,497.774,183.834z
		 M488.878,32.288c0-3.681,1.943-6.849,5.829-9.51c3.883-2.657,7.361-3.988,10.432-3.988c5.521,0,8.28,3.172,8.28,9.51
		c0,6.341-1.64,11.811-4.905,16.413c-3.275,4.602-7.877,6.903-13.807,6.903C490.822,51.615,488.878,45.171,488.878,32.288z"/>
	<linearGradient id="SVGID_7_" gradientUnits="userSpaceOnUse" x1="532.7427" y1="127.0815" x2="654.5327" y2="127.0815">
		<stop  offset="0" style="stop-color:#FE4F31"/>
		<stop  offset="1" style="stop-color:#E1296D"/>
	</linearGradient>
	<path fill="url(#SVGID_7_)" d="M569.559,168.803c7.36,0,13.806-3.834,19.327-11.505c5.521-7.668,9.607-17.024,12.271-28.069
		c-7.365-2.247-12.99-6.183-16.873-11.811c-3.89-5.623-5.829-12.116-5.829-19.479s1.89-13.806,5.676-19.328
		c3.782-5.521,9.249-8.282,16.41-8.282c4.294,0,7.565,2.713,9.82,8.128c2.247,5.421,3.374,11.505,3.374,18.254
		s-0.516,13.498-1.535,20.247c3.066,1.228,6.337,1.841,9.815,1.841c7.977,0,15.646-3.683,23.011-11.045
		c3.682-3.68,6.183-5.521,7.514-5.521c1.328,0,1.993,1.026,1.993,3.069c0,2.045-1.331,4.5-3.985,7.36
		c-10.844,12.071-24.542,18.1-41.11,18.1c-3.887,14.932-9.92,27.51-18.101,37.733c-8.18,10.229-18.203,15.339-30.062,15.339
		c-6.953,0-12.682-2.963-17.18-8.896c-7.569-9.61-11.352-23.722-11.352-42.335c0-6.337,0.512-14.52,1.535-24.541
		c1.02-10.02,2.197-16.155,3.529-18.408c1.327-2.247,4.602-5.008,9.815-8.282c5.218-3.269,8.846-4.908,10.894-4.908
		c3.066,0,4.598,1.839,4.598,5.521c0,10.429-2.659,21.78-7.973,34.053c0,14.523,1.174,26.948,3.524,37.271
		C561.016,163.641,564.649,168.803,569.559,168.803z M597.474,81.985c-1.64,0-2.455,3.375-2.455,10.124s3.067,13.192,9.204,19.328
		c0.408-2.455,0.611-4.91,0.611-7.363C604.834,89.348,602.384,81.985,597.474,81.985z"/>
	<linearGradient id="SVGID_8_" gradientUnits="userSpaceOnUse" x1="638.5806" y1="128.6147" x2="744.7251" y2="128.6147">
		<stop  offset="0" style="stop-color:#FE4F31"/>
		<stop  offset="1" style="stop-color:#E1296D"/>
	</linearGradient>
	<path fill="url(#SVGID_8_)" d="M676.007,183.834c-11.459,0-20.555-4.342-27.304-13.039c-6.749-8.69-10.123-18.56-10.123-29.603
		c0-22.29,4.701-39.163,14.109-50.618c9.403-11.453,21.574-17.181,36.508-17.181c6.948,0,12.678,1.894,17.18,5.676
		c4.494,3.786,6.75,8.95,6.75,15.493c0,12.271-5.168,22.548-15.496,30.83c-10.327,8.282-22.959,12.63-37.885,13.039
		c0.815,7.976,3.528,14.877,8.131,20.707c4.602,5.83,9.969,8.744,16.103,8.744c6.138,0,11.659-1.429,16.568-4.296
		c4.906-2.861,9.404-6.951,13.498-12.271c8.589-11.245,15.953-24.029,22.087-38.347c1.635-3.683,2.916-6.337,3.836-7.977
		c0.92-1.635,1.939-2.455,3.066-2.455c1.123,0,1.689,0.82,1.689,2.455c0,10.229-6.241,25.569-18.716,46.016
		C712.511,172.897,695.842,183.834,676.007,183.834z M659.747,131.07c12.066-2.043,20.908-5.93,26.534-11.657
		c5.626-5.724,8.438-13.192,8.438-22.396c0-9.202-2.967-13.804-8.896-13.804c-7.16,0-13.189,4.959-18.1,14.877
		C662.813,108.014,660.155,119.005,659.747,131.07z"/>
</g>
<rect id="_x3C_Slice_x3E_" x="1.263" y="5" fill="none" width="744" height="285"/>
<g>
	<path fill="#595959" d="M207.982,258.415h-19.521v-2.48h19.521V258.415z"/>
	<path fill="#595959" d="M256.622,267.615h-14.24l-3.68,16.48h-2.56l4.24-18.72v-0.24l8.16-34.961h2l12.32,53.921h-2.56
		L256.622,267.615z M243.021,265.135h13.041l-6.561-28.161L243.021,265.135z"/>
	<path fill="#595959" d="M289.582,268.575h2.48v1.2c0,5.36,1.36,8.24,3.12,9.84c1.76,1.6,4,1.92,5.92,1.92
		c5.76,0,9.04-2.4,9.04-9.52c0-12-20.561-15.281-20.561-29.201c0-8.081,4.16-12.721,11.521-12.721c7.6,0,11.6,5.041,11.6,14.321
		v1.28h-2.56v-1.28c0-8.081-2.96-11.761-9.04-11.761c-5.76,0-9.04,2.96-9.04,9.92c0,12.8,20.64,15.36,20.64,29.201
		c0,8-4.16,12.24-11.6,12.24c-7.68,0-11.521-4.72-11.521-14.24V268.575z"/>
	<path fill="#595959" d="M341.421,268.575h2.48v1.2c0,5.36,1.36,8.24,3.12,9.84c1.76,1.6,4,1.92,5.92,1.92
		c5.76,0,9.04-2.4,9.04-9.52c0-12-20.561-15.281-20.561-29.201c0-8.081,4.16-12.721,11.521-12.721c7.6,0,11.6,5.041,11.6,14.321
		v1.28h-2.56v-1.28c0-8.081-2.96-11.761-9.04-11.761c-5.76,0-9.04,2.96-9.04,9.92c0,12.8,20.64,15.36,20.64,29.201
		c0,8-4.16,12.24-11.6,12.24c-7.68,0-11.521-4.72-11.521-14.24V268.575z"/>
	<path fill="#595959" d="M412.621,230.174v2.48h-16.88v23.201h14.48v2.48h-14.48v23.281h16.88v2.48h-19.36v-53.921H412.621z"/>
	<path fill="#595959" d="M441.1,230.094h23.521v2.56h-10.56v51.361h-2.48v-51.361H441.1V230.094z"/>
	<path fill="#595959" d="M488.541,268.575h2.48v1.2c0,5.36,1.36,8.24,3.12,9.84s4,1.92,5.92,1.92c5.76,0,9.04-2.4,9.04-9.52
		c0-12-20.561-15.281-20.561-29.201c0-8.081,4.16-12.721,11.521-12.721c7.6,0,11.6,5.041,11.6,14.321v1.28h-2.56v-1.28
		c0-8.081-2.96-11.761-9.04-11.761c-5.76,0-9.04,2.96-9.04,9.92c0,12.8,20.64,15.36,20.64,29.201c0,8-4.16,12.24-11.6,12.24
		c-7.68,0-11.521-4.72-11.521-14.24V268.575z"/>
	<path fill="#595959" d="M560.141,258.415h-19.521v-2.48h19.521V258.415z"/>
</g>
</svg>
